PathFileType	4	(X/Y/Z)	C:/Users/opensim2020/Desktop/walking_exp_matlab/subject01_walking10_straight_04.trc	
DataRate	CameraRate	NumFrames	NumMarkers	Units	OrigDataRate	OrigDataStartFrame	OrigNumFrames	
100.00	100.00	6	43	mm	100.00	4061	274	
Frame#	Time	LFHD			RFHD			LBHD			RBHD			C7			T10			CLAV			STRN			RBAK			LSHO			LUPA			LELB			LFRM			LWRA			LWRB			LFIN			RSHO			RUPA			RELB			RFRM			RWRA			RWRB			RFIN			LASI			RASI			LPSI			RPSI			LTHI			LKNE			LTIB			LANK			LHEE			LTOE			RTHI			RKNE			RTIB			RANK			RHEE			RTOE			*39			*40			*41			*42			
		X1	Y1	Z1	X2	Y2	Z2	X3	Y3	Z3	X4	Y4	Z4	X5	Y5	Z5	X6	Y6	Z6	X7	Y7	Z7	X8	Y8	Z8	X9	Y9	Z9	X10	Y10	Z10	X11	Y11	Z11	X12	Y12	Z12	X13	Y13	Z13	X14	Y14	Z14	X15	Y15	Z15	X16	Y16	Z16	X17	Y17	Z17	X18	Y18	Z18	X19	Y19	Z19	X20	Y20	Z20	X21	Y21	Z21	X22	Y22	Z22	X23	Y23	Z23	X24	Y24	Z24	X25	Y25	Z25	X26	Y26	Z26	X27	Y27	Z27	X28	Y28	Z28	X29	Y29	Z29	X30	Y30	Z30	X31	Y31	Z31	X32	Y32	Z32	X33	Y33	Z33	X34	Y34	Z34	X35	Y35	Z35	X36	Y36	Z36	X37	Y37	Z37	X38	Y38	Z38	X39	Y39	Z39	X40	Y40	Z40	X41	Y41	Z41	X42	Y42	Z42	X43	Y43	Z43	

240	2.390	-988.16107	-632.84814	1647.84839	-1089.20288	-685.67065	1651.66040	-1040.64612	-520.79315	1623.67590	-1148.08313	-574.36511	1628.01709	-1083.30078	-475.70187	1416.56543	-1091.99731	-443.68463	1124.07397	-1067.53442	-622.96936	1354.24036	-1065.12170	-665.12872	1198.91333	-1170.89539	-432.75394	1224.54968	-913.09619	-542.55371	1381.22034	-837.79272	-494.26370	1195.64063	-846.57037	-468.28156	1048.84045	-820.85748	-485.55173	936.98798	-837.47980	-543.20813	808.66821	-814.56476	-487.56061	814.30676	-809.08820	-520.22900	734.22736	-1224.03198	-573.94611	1384.58936	-1340.00549	-543.84796	1187.14978	-1353.02332	-559.38800	1063.27954	-1379.71936	-614.50140	953.65698	-1344.28906	-711.36194	853.01880	-1393.13940	-678.33215	847.99957	-1374.79639	-721.68231	771.36505	-980.72516	-623.27991	920.53009	-1199.90442	-617.46185	915.45258	-1025.40515	-434.24240	930.21918	-1169.89258	-431.57150	937.08142	-919.76855	-656.06470	601.20917	-937.11273	-678.86438	470.84128	-930.08289	-673.39276	282.07208	-976.76483	-717.24939	66.67617	-1035.25110	-683.61194	33.12346	-962.88965	-864.40759	47.92170	-1246.73450	-503.34189	590.66144	-1221.53003	-474.82816	431.67014	-1226.61133	-367.80737	289.99664	-1177.27649	-273.92654	103.97736	-1127.83459	-215.51259	82.61697	-1167.27661	-399.14514	33.71790	-1069.80151	-672.76819	1686.73584	-3102.55811	1972.91711	1024.09241						 
241	2.400	-985.08069	-640.20923	1647.61914	-1085.99072	-693.10303	1651.93506	-1037.72131	-528.28424	1623.61621	-1145.09875	-581.93750	1628.43994	-1080.83521	-483.37375	1416.63513	-1090.09167	-452.21085	1123.80859	-1065.37488	-630.61340	1354.37659	-1063.20947	-673.25562	1199.11511	-1168.37964	-440.73126	1224.19397	-910.77979	-550.13190	1380.46924	-835.75519	-502.56085	1194.60120	-844.67743	-477.22568	1047.62622	-819.02252	-494.93893	935.79822	-835.87982	-553.15161	807.71124	-812.77356	-497.33347	813.07214	-807.52313	-530.46588	733.18970	-1221.86511	-581.38947	1384.72449	-1337.76135	-550.78931	1187.37805	-1350.71521	-565.57629	1063.31750	-1377.64893	-619.87256	953.32581	-1342.90381	-716.42999	852.20032	-1391.39807	-683.07440	847.15588	-1373.76233	-726.39276	770.86951	-979.39471	-632.53125	920.64435	-1198.44421	-626.18884	915.21112	-1023.58466	-443.18686	930.64313	-1168.08704	-440.56787	936.69281	-918.41229	-663.99994	601.44611	-936.13068	-687.11511	471.65619	-928.78009	-681.35400	282.72592	-976.17151	-720.41040	66.46603	-1034.39343	-685.15698	34.06949	-963.33978	-866.80139	43.55241	-1245.50317	-511.83765	590.55518	-1220.89929	-482.93741	431.38644	-1226.16797	-373.22983	291.76199	-1177.79285	-276.08664	107.09038	-1128.11633	-217.42831	87.02813	-1167.45496	-399.44168	33.68427	-1066.40588	-680.22711	1686.98083	-3102.43335	1972.99841	1024.03906	-3138.56885	2012.97766	1022.25061			 
242	2.410	-981.88507	-647.64862	1647.45581	-1082.82959	-700.65674	1652.20300	-1035.02783	-535.92407	1623.69434	-1142.06702	-589.55817	1628.89758	-1078.42139	-490.97339	1416.91748	-1088.23303	-460.68533	1123.64038	-1063.22766	-638.31116	1354.60266	-1061.20129	-681.54877	1199.59399	-1166.02026	-448.72241	1224.16626	-908.54718	-557.63153	1379.94385	-833.76379	-510.91208	1193.76111	-842.70825	-486.49020	1046.63232	-817.11841	-504.61963	934.86340	-834.14075	-563.36407	807.08765	-811.14105	-507.63074	812.19751	-805.81183	-541.00159	732.41931	-1219.61865	-588.99133	1385.06812	-1335.37952	-557.75262	1187.79810	-1348.28809	-571.75824	1063.74634	-1375.52747	-625.14374	953.33087	-1341.45056	-721.21326	851.58368	-1389.72656	-687.49292	846.85840	-1372.81580	-730.77679	770.57532	-977.85364	-641.79999	921.15857	-1196.85974	-634.99353	915.13843	-1022.00122	-452.17221	931.32715	-1166.53601	-449.43002	936.48450	-916.92767	-672.04132	601.81476	-935.25629	-695.54633	472.39417	-926.78760	-689.45728	283.32855	-976.19012	-722.30371	66.17312	-1034.00171	-686.20734	34.72267	-963.24542	-868.18402	40.27414	-1244.81885	-520.84625	590.76202	-1220.46619	-491.65540	431.19861	-1225.76575	-379.05484	293.84177	-1178.29675	-278.66119	110.55956	-1128.58997	-219.66768	91.76008	-1167.69543	-399.85568	33.64998	-1062.97876	-687.93372	1687.28381	-3102.50244	1972.97253	1023.92938	-3138.48853	2012.97327	1023.11829			 
243	2.420	-978.77124	-655.08813	1647.46716	-1079.50720	-708.24713	1652.63013	-1031.99414	-543.30487	1623.63208	-1139.03552	-597.26263	1629.38879	-1076.02222	-498.74246	1417.18408	-1086.38672	-469.08450	1123.67871	-1060.97473	-646.04578	1354.93774	-1059.26013	-689.96252	1200.21033	-1163.66406	-456.71597	1224.20361	-906.36285	-565.01990	1379.62390	-831.72638	-519.37146	1193.10522	-840.58630	-495.66867	1045.89478	-815.11963	-514.53503	934.18091	-832.32178	-573.85431	806.68481	-809.00189	-518.20801	811.54907	-803.92505	-551.97095	731.95935	-1217.43176	-596.55603	1385.55078	-1332.97888	-564.70636	1188.46448	-1345.81226	-577.95697	1064.24243	-1373.33240	-630.24268	953.53601	-1339.89465	-725.71918	851.19617	-1387.87805	-691.55792	846.54346	-1371.80945	-735.05157	770.41461	-976.20703	-650.92206	921.90924	-1195.12354	-643.82050	915.23151	-1020.48969	-461.00171	932.14990	-1165.07642	-458.07233	936.50513	-915.52130	-680.25977	602.40985	-934.49207	-704.03467	472.79434	-924.62177	-696.73444	283.52701	-976.23932	-723.25836	66.14757	-1033.88367	-687.06555	35.15392	-962.77570	-869.22791	38.25644	-1243.40076	-530.28290	590.74158	-1220.13062	-501.06039	431.14996	-1225.45361	-385.17151	296.31131	-1178.69214	-281.54718	114.48012	-1129.00671	-222.55844	97.35838	-1167.94568	-400.24869	33.67669	-1059.56921	-695.57904	1687.66626	-3102.10962	1973.14001	1024.04663						 
244	2.430	-975.73083	-662.60004	1647.50293	-1076.31750	-715.96039	1653.15540	-1029.20044	-550.94476	1623.88977	-1136.16003	-605.07794	1630.02466	-1073.68738	-506.43033	1417.32886	-1084.52539	-477.46832	1123.89441	-1058.83936	-653.95605	1355.55811	-1057.26624	-698.29828	1200.99268	-1161.38428	-464.75409	1224.40271	-904.25458	-572.35468	1379.46497	-829.71436	-527.89099	1192.63867	-838.42914	-504.79190	1045.31836	-813.03308	-524.67419	933.77881	-830.42035	-584.53815	806.55096	-806.89227	-528.83160	811.12189	-801.93091	-563.28516	731.65350	-1215.22156	-604.18640	1386.24634	-1330.78540	-571.58130	1189.38062	-1343.55078	-584.01648	1065.13525	-1371.17725	-635.23126	953.94043	-1338.41528	-730.16400	850.83893	-1386.04480	-695.73785	846.56812	-1370.94617	-739.03448	770.38544	-974.42474	-659.81952	922.81342	-1193.17798	-652.76129	915.45154	-1018.89716	-469.82462	933.02490	-1163.47339	-467.36316	936.92749	-914.10150	-688.79858	602.98749	-933.85309	-712.37012	472.86038	-922.78845	-702.99280	283.30807	-976.24695	-725.18457	66.41917	-1033.72144	-687.64044	35.57068	-962.90668	-870.68384	36.41323	-1242.03369	-540.35089	591.11877	-1219.77002	-511.31216	431.15948	-1225.12061	-392.02475	298.97055	-1179.58362	-284.91089	118.94426	-1129.55493	-225.99004	103.46786	-1168.25037	-400.69363	33.74452	-1056.33264	-703.13306	1688.05408	-3102.65112	1972.90613	1023.96033	-3138.72461	2013.05054	1022.05170			 
245	2.440	-972.67554	-670.28137	1647.88232	-1073.19800	-723.81171	1653.76282	-1026.55042	-558.88458	1624.32458	-1133.22144	-612.99579	1630.74670	-1071.77527	-513.88617	1417.85645	-1082.68481	-485.75089	1124.26868	-1056.55920	-661.11249	1355.97681	-1055.36426	-706.65204	1201.86377	-1159.22852	-472.83563	1224.78015	-902.08105	-579.66156	1379.47998	-827.69678	-536.33020	1192.35571	-836.21960	-514.39758	1045.06738	-810.91473	-535.03961	933.54169	-828.49329	-595.46985	806.57587	-804.82336	-540.02466	810.94916	-799.75256	-574.66193	731.68304	-1213.22998	-611.71460	1387.18677	-1328.44446	-578.43134	1190.41394	-1341.18237	-589.96466	1066.17822	-1368.92188	-640.20276	954.64246	-1336.84875	-734.39771	850.70581	-1384.47034	-699.41296	846.56824	-1369.95325	-742.76715	770.57477	-972.47186	-668.52338	923.70654	-1191.02490	-661.58594	915.95972	-1017.30981	-478.54871	933.93457	-1161.90247	-476.31339	937.33936	-912.77234	-697.48279	603.49066	-933.14490	-720.38910	472.78076	-921.32922	-708.26392	283.03290	-976.38861	-726.45349	66.25691	-1033.51550	-688.04510	35.83028	-963.68024	-872.09186	35.49623	-1241.31030	-550.83118	591.50952	-1219.70447	-522.66559	431.04276	-1224.74109	-399.89749	301.82437	-1180.35913	-288.96613	123.90082	-1130.06396	-230.06938	110.61329	-1168.48450	-401.46024	33.77304	-1053.07031	-710.80499	1688.53760	-3102.20166	1973.07190	1024.12781	-3138.55396	2013.12268	1022.07916			 
